%TF.GenerationSoftware,KiCad,Pcbnew,(6.0.2)*%
%TF.CreationDate,2022-04-01T16:02:15+02:00*%
%TF.ProjectId,rotarykeyboard,726f7461-7279-46b6-9579-626f6172642e,rev?*%
%TF.SameCoordinates,Original*%
%TF.FileFunction,Legend,Bot*%
%TF.FilePolarity,Positive*%
%FSLAX46Y46*%
G04 Gerber Fmt 4.6, Leading zero omitted, Abs format (unit mm)*
G04 Created by KiCad (PCBNEW (6.0.2)) date 2022-04-01 16:02:15*
%MOMM*%
%LPD*%
G01*
G04 APERTURE LIST*
G04 Aperture macros list*
%AMRoundRect*
0 Rectangle with rounded corners*
0 $1 Rounding radius*
0 $2 $3 $4 $5 $6 $7 $8 $9 X,Y pos of 4 corners*
0 Add a 4 corners polygon primitive as box body*
4,1,4,$2,$3,$4,$5,$6,$7,$8,$9,$2,$3,0*
0 Add four circle primitives for the rounded corners*
1,1,$1+$1,$2,$3*
1,1,$1+$1,$4,$5*
1,1,$1+$1,$6,$7*
1,1,$1+$1,$8,$9*
0 Add four rect primitives between the rounded corners*
20,1,$1+$1,$2,$3,$4,$5,0*
20,1,$1+$1,$4,$5,$6,$7,0*
20,1,$1+$1,$6,$7,$8,$9,0*
20,1,$1+$1,$8,$9,$2,$3,0*%
G04 Aperture macros list end*
%ADD10C,0.150000*%
%ADD11C,0.120000*%
%ADD12C,0.660400*%
%ADD13C,2.200000*%
%ADD14C,2.000000*%
%ADD15O,2.300000X4.800000*%
%ADD16O,2.000000X2.500000*%
%ADD17C,1.500000*%
%ADD18R,1.000000X1.000000*%
%ADD19O,1.000000X1.000000*%
%ADD20C,1.100000*%
%ADD21RoundRect,0.250000X0.132583X-0.503814X0.503814X-0.132583X-0.132583X0.503814X-0.503814X0.132583X0*%
%ADD22RoundRect,0.250000X-0.250000X-0.475000X0.250000X-0.475000X0.250000X0.475000X-0.250000X0.475000X0*%
%ADD23RoundRect,0.250000X0.250000X0.475000X-0.250000X0.475000X-0.250000X-0.475000X0.250000X-0.475000X0*%
%ADD24RoundRect,0.250000X0.475000X-0.250000X0.475000X0.250000X-0.475000X0.250000X-0.475000X-0.250000X0*%
G04 APERTURE END LIST*
D10*
%TO.C,R302*%
X68063893Y-44383321D02*
X67962878Y-43810901D01*
X68467954Y-43979260D02*
X67760848Y-43272153D01*
X67491474Y-43541527D01*
X67457802Y-43642542D01*
X67457802Y-43709886D01*
X67491474Y-43810901D01*
X67592489Y-43911916D01*
X67693504Y-43945588D01*
X67760848Y-43945588D01*
X67861863Y-43911916D01*
X68131237Y-43642542D01*
X67121084Y-43911916D02*
X66683351Y-44349649D01*
X67188428Y-44383321D01*
X67087413Y-44484336D01*
X67053741Y-44585351D01*
X67053741Y-44652695D01*
X67087413Y-44753710D01*
X67255771Y-44922069D01*
X67356787Y-44955741D01*
X67424130Y-44955741D01*
X67525145Y-44922069D01*
X67727176Y-44720038D01*
X67760848Y-44619023D01*
X67760848Y-44551680D01*
X66245619Y-44787382D02*
X66178275Y-44854726D01*
X66144603Y-44955741D01*
X66144603Y-45023084D01*
X66178275Y-45124100D01*
X66279290Y-45292458D01*
X66447649Y-45460817D01*
X66616008Y-45561832D01*
X66717023Y-45595504D01*
X66784367Y-45595504D01*
X66885382Y-45561832D01*
X66952726Y-45494489D01*
X66986397Y-45393474D01*
X66986397Y-45326130D01*
X66952726Y-45225115D01*
X66851710Y-45056756D01*
X66683351Y-44888397D01*
X66514993Y-44787382D01*
X66413977Y-44753710D01*
X66346634Y-44753710D01*
X66245619Y-44787382D01*
X65807886Y-45359802D02*
X65740542Y-45359802D01*
X65639527Y-45393474D01*
X65471168Y-45561832D01*
X65437497Y-45662848D01*
X65437497Y-45730191D01*
X65471168Y-45831206D01*
X65538512Y-45898550D01*
X65673199Y-45965893D01*
X66481321Y-45965893D01*
X66043588Y-46403626D01*
%TO.C,R303*%
X70603893Y-46669321D02*
X70502878Y-46096901D01*
X71007954Y-46265260D02*
X70300848Y-45558153D01*
X70031474Y-45827527D01*
X69997802Y-45928542D01*
X69997802Y-45995886D01*
X70031474Y-46096901D01*
X70132489Y-46197916D01*
X70233504Y-46231588D01*
X70300848Y-46231588D01*
X70401863Y-46197916D01*
X70671237Y-45928542D01*
X69661084Y-46197916D02*
X69223351Y-46635649D01*
X69728428Y-46669321D01*
X69627413Y-46770336D01*
X69593741Y-46871351D01*
X69593741Y-46938695D01*
X69627413Y-47039710D01*
X69795771Y-47208069D01*
X69896787Y-47241741D01*
X69964130Y-47241741D01*
X70065145Y-47208069D01*
X70267176Y-47006038D01*
X70300848Y-46905023D01*
X70300848Y-46837680D01*
X68785619Y-47073382D02*
X68718275Y-47140726D01*
X68684603Y-47241741D01*
X68684603Y-47309084D01*
X68718275Y-47410100D01*
X68819290Y-47578458D01*
X68987649Y-47746817D01*
X69156008Y-47847832D01*
X69257023Y-47881504D01*
X69324367Y-47881504D01*
X69425382Y-47847832D01*
X69492726Y-47780489D01*
X69526397Y-47679474D01*
X69526397Y-47612130D01*
X69492726Y-47511115D01*
X69391710Y-47342756D01*
X69223351Y-47174397D01*
X69054993Y-47073382D01*
X68953977Y-47039710D01*
X68886634Y-47039710D01*
X68785619Y-47073382D01*
X68314214Y-47544787D02*
X67876481Y-47982519D01*
X68381558Y-48016191D01*
X68280542Y-48117206D01*
X68246871Y-48218222D01*
X68246871Y-48285565D01*
X68280542Y-48386580D01*
X68448901Y-48554939D01*
X68549916Y-48588611D01*
X68617260Y-48588611D01*
X68718275Y-48554939D01*
X68920306Y-48352909D01*
X68953977Y-48251893D01*
X68953977Y-48184550D01*
%TO.C,C302*%
X74779047Y-49103143D02*
X74826666Y-49150762D01*
X74969523Y-49198381D01*
X75064761Y-49198381D01*
X75207619Y-49150762D01*
X75302857Y-49055524D01*
X75350476Y-48960286D01*
X75398095Y-48769810D01*
X75398095Y-48626953D01*
X75350476Y-48436477D01*
X75302857Y-48341239D01*
X75207619Y-48246001D01*
X75064761Y-48198381D01*
X74969523Y-48198381D01*
X74826666Y-48246001D01*
X74779047Y-48293620D01*
X74445714Y-48198381D02*
X73826666Y-48198381D01*
X74160000Y-48579334D01*
X74017142Y-48579334D01*
X73921904Y-48626953D01*
X73874285Y-48674572D01*
X73826666Y-48769810D01*
X73826666Y-49007905D01*
X73874285Y-49103143D01*
X73921904Y-49150762D01*
X74017142Y-49198381D01*
X74302857Y-49198381D01*
X74398095Y-49150762D01*
X74445714Y-49103143D01*
X73207619Y-48198381D02*
X73112380Y-48198381D01*
X73017142Y-48246001D01*
X72969523Y-48293620D01*
X72921904Y-48388858D01*
X72874285Y-48579334D01*
X72874285Y-48817429D01*
X72921904Y-49007905D01*
X72969523Y-49103143D01*
X73017142Y-49150762D01*
X73112380Y-49198381D01*
X73207619Y-49198381D01*
X73302857Y-49150762D01*
X73350476Y-49103143D01*
X73398095Y-49007905D01*
X73445714Y-48817429D01*
X73445714Y-48579334D01*
X73398095Y-48388858D01*
X73350476Y-48293620D01*
X73302857Y-48246001D01*
X73207619Y-48198381D01*
X72493333Y-48293620D02*
X72445714Y-48246001D01*
X72350476Y-48198381D01*
X72112380Y-48198381D01*
X72017142Y-48246001D01*
X71969523Y-48293620D01*
X71921904Y-48388858D01*
X71921904Y-48484096D01*
X71969523Y-48626953D01*
X72540952Y-49198381D01*
X71921904Y-49198381D01*
%TO.C,C105*%
X104497047Y-71731142D02*
X104544666Y-71778761D01*
X104687523Y-71826380D01*
X104782761Y-71826380D01*
X104925619Y-71778761D01*
X105020857Y-71683523D01*
X105068476Y-71588285D01*
X105116095Y-71397809D01*
X105116095Y-71254952D01*
X105068476Y-71064476D01*
X105020857Y-70969238D01*
X104925619Y-70874000D01*
X104782761Y-70826380D01*
X104687523Y-70826380D01*
X104544666Y-70874000D01*
X104497047Y-70921619D01*
X103544666Y-71826380D02*
X104116095Y-71826380D01*
X103830380Y-71826380D02*
X103830380Y-70826380D01*
X103925619Y-70969238D01*
X104020857Y-71064476D01*
X104116095Y-71112095D01*
X102925619Y-70826380D02*
X102830380Y-70826380D01*
X102735142Y-70874000D01*
X102687523Y-70921619D01*
X102639904Y-71016857D01*
X102592285Y-71207333D01*
X102592285Y-71445428D01*
X102639904Y-71635904D01*
X102687523Y-71731142D01*
X102735142Y-71778761D01*
X102830380Y-71826380D01*
X102925619Y-71826380D01*
X103020857Y-71778761D01*
X103068476Y-71731142D01*
X103116095Y-71635904D01*
X103163714Y-71445428D01*
X103163714Y-71207333D01*
X103116095Y-71016857D01*
X103068476Y-70921619D01*
X103020857Y-70874000D01*
X102925619Y-70826380D01*
X101687523Y-70826380D02*
X102163714Y-70826380D01*
X102211333Y-71302571D01*
X102163714Y-71254952D01*
X102068476Y-71207333D01*
X101830380Y-71207333D01*
X101735142Y-71254952D01*
X101687523Y-71302571D01*
X101639904Y-71397809D01*
X101639904Y-71635904D01*
X101687523Y-71731142D01*
X101735142Y-71778761D01*
X101830380Y-71826380D01*
X102068476Y-71826380D01*
X102163714Y-71778761D01*
X102211333Y-71731142D01*
%TO.C,C104*%
X99925047Y-67921142D02*
X99972666Y-67968761D01*
X100115523Y-68016380D01*
X100210761Y-68016380D01*
X100353619Y-67968761D01*
X100448857Y-67873523D01*
X100496476Y-67778285D01*
X100544095Y-67587809D01*
X100544095Y-67444952D01*
X100496476Y-67254476D01*
X100448857Y-67159238D01*
X100353619Y-67064000D01*
X100210761Y-67016380D01*
X100115523Y-67016380D01*
X99972666Y-67064000D01*
X99925047Y-67111619D01*
X98972666Y-68016380D02*
X99544095Y-68016380D01*
X99258380Y-68016380D02*
X99258380Y-67016380D01*
X99353619Y-67159238D01*
X99448857Y-67254476D01*
X99544095Y-67302095D01*
X98353619Y-67016380D02*
X98258380Y-67016380D01*
X98163142Y-67064000D01*
X98115523Y-67111619D01*
X98067904Y-67206857D01*
X98020285Y-67397333D01*
X98020285Y-67635428D01*
X98067904Y-67825904D01*
X98115523Y-67921142D01*
X98163142Y-67968761D01*
X98258380Y-68016380D01*
X98353619Y-68016380D01*
X98448857Y-67968761D01*
X98496476Y-67921142D01*
X98544095Y-67825904D01*
X98591714Y-67635428D01*
X98591714Y-67397333D01*
X98544095Y-67206857D01*
X98496476Y-67111619D01*
X98448857Y-67064000D01*
X98353619Y-67016380D01*
X97163142Y-67349714D02*
X97163142Y-68016380D01*
X97401238Y-66968761D02*
X97639333Y-67683047D01*
X97020285Y-67683047D01*
%TO.C,C101*%
X104497047Y-64111142D02*
X104544666Y-64158761D01*
X104687523Y-64206380D01*
X104782761Y-64206380D01*
X104925619Y-64158761D01*
X105020857Y-64063523D01*
X105068476Y-63968285D01*
X105116095Y-63777809D01*
X105116095Y-63634952D01*
X105068476Y-63444476D01*
X105020857Y-63349238D01*
X104925619Y-63254000D01*
X104782761Y-63206380D01*
X104687523Y-63206380D01*
X104544666Y-63254000D01*
X104497047Y-63301619D01*
X103544666Y-64206380D02*
X104116095Y-64206380D01*
X103830380Y-64206380D02*
X103830380Y-63206380D01*
X103925619Y-63349238D01*
X104020857Y-63444476D01*
X104116095Y-63492095D01*
X102925619Y-63206380D02*
X102830380Y-63206380D01*
X102735142Y-63254000D01*
X102687523Y-63301619D01*
X102639904Y-63396857D01*
X102592285Y-63587333D01*
X102592285Y-63825428D01*
X102639904Y-64015904D01*
X102687523Y-64111142D01*
X102735142Y-64158761D01*
X102830380Y-64206380D01*
X102925619Y-64206380D01*
X103020857Y-64158761D01*
X103068476Y-64111142D01*
X103116095Y-64015904D01*
X103163714Y-63825428D01*
X103163714Y-63587333D01*
X103116095Y-63396857D01*
X103068476Y-63301619D01*
X103020857Y-63254000D01*
X102925619Y-63206380D01*
X101639904Y-64206380D02*
X102211333Y-64206380D01*
X101925619Y-64206380D02*
X101925619Y-63206380D01*
X102020857Y-63349238D01*
X102116095Y-63444476D01*
X102211333Y-63492095D01*
%TO.C,C102*%
X104497047Y-67921142D02*
X104544666Y-67968761D01*
X104687523Y-68016380D01*
X104782761Y-68016380D01*
X104925619Y-67968761D01*
X105020857Y-67873523D01*
X105068476Y-67778285D01*
X105116095Y-67587809D01*
X105116095Y-67444952D01*
X105068476Y-67254476D01*
X105020857Y-67159238D01*
X104925619Y-67064000D01*
X104782761Y-67016380D01*
X104687523Y-67016380D01*
X104544666Y-67064000D01*
X104497047Y-67111619D01*
X103544666Y-68016380D02*
X104116095Y-68016380D01*
X103830380Y-68016380D02*
X103830380Y-67016380D01*
X103925619Y-67159238D01*
X104020857Y-67254476D01*
X104116095Y-67302095D01*
X102925619Y-67016380D02*
X102830380Y-67016380D01*
X102735142Y-67064000D01*
X102687523Y-67111619D01*
X102639904Y-67206857D01*
X102592285Y-67397333D01*
X102592285Y-67635428D01*
X102639904Y-67825904D01*
X102687523Y-67921142D01*
X102735142Y-67968761D01*
X102830380Y-68016380D01*
X102925619Y-68016380D01*
X103020857Y-67968761D01*
X103068476Y-67921142D01*
X103116095Y-67825904D01*
X103163714Y-67635428D01*
X103163714Y-67397333D01*
X103116095Y-67206857D01*
X103068476Y-67111619D01*
X103020857Y-67064000D01*
X102925619Y-67016380D01*
X102211333Y-67111619D02*
X102163714Y-67064000D01*
X102068476Y-67016380D01*
X101830380Y-67016380D01*
X101735142Y-67064000D01*
X101687523Y-67111619D01*
X101639904Y-67206857D01*
X101639904Y-67302095D01*
X101687523Y-67444952D01*
X102258952Y-68016380D01*
X101639904Y-68016380D01*
%TO.C,C109*%
X105513142Y-56218952D02*
X105560761Y-56171333D01*
X105608380Y-56028476D01*
X105608380Y-55933238D01*
X105560761Y-55790380D01*
X105465523Y-55695142D01*
X105370285Y-55647523D01*
X105179809Y-55599904D01*
X105036952Y-55599904D01*
X104846476Y-55647523D01*
X104751238Y-55695142D01*
X104656000Y-55790380D01*
X104608380Y-55933238D01*
X104608380Y-56028476D01*
X104656000Y-56171333D01*
X104703619Y-56218952D01*
X105608380Y-57171333D02*
X105608380Y-56599904D01*
X105608380Y-56885619D02*
X104608380Y-56885619D01*
X104751238Y-56790380D01*
X104846476Y-56695142D01*
X104894095Y-56599904D01*
X104608380Y-57790380D02*
X104608380Y-57885619D01*
X104656000Y-57980857D01*
X104703619Y-58028476D01*
X104798857Y-58076095D01*
X104989333Y-58123714D01*
X105227428Y-58123714D01*
X105417904Y-58076095D01*
X105513142Y-58028476D01*
X105560761Y-57980857D01*
X105608380Y-57885619D01*
X105608380Y-57790380D01*
X105560761Y-57695142D01*
X105513142Y-57647523D01*
X105417904Y-57599904D01*
X105227428Y-57552285D01*
X104989333Y-57552285D01*
X104798857Y-57599904D01*
X104703619Y-57647523D01*
X104656000Y-57695142D01*
X104608380Y-57790380D01*
X105608380Y-58599904D02*
X105608380Y-58790380D01*
X105560761Y-58885619D01*
X105513142Y-58933238D01*
X105370285Y-59028476D01*
X105179809Y-59076095D01*
X104798857Y-59076095D01*
X104703619Y-59028476D01*
X104656000Y-58980857D01*
X104608380Y-58885619D01*
X104608380Y-58695142D01*
X104656000Y-58599904D01*
X104703619Y-58552285D01*
X104798857Y-58504666D01*
X105036952Y-58504666D01*
X105132190Y-58552285D01*
X105179809Y-58599904D01*
X105227428Y-58695142D01*
X105227428Y-58885619D01*
X105179809Y-58980857D01*
X105132190Y-59028476D01*
X105036952Y-59076095D01*
%TO.C,C103*%
X99925047Y-64111142D02*
X99972666Y-64158761D01*
X100115523Y-64206380D01*
X100210761Y-64206380D01*
X100353619Y-64158761D01*
X100448857Y-64063523D01*
X100496476Y-63968285D01*
X100544095Y-63777809D01*
X100544095Y-63634952D01*
X100496476Y-63444476D01*
X100448857Y-63349238D01*
X100353619Y-63254000D01*
X100210761Y-63206380D01*
X100115523Y-63206380D01*
X99972666Y-63254000D01*
X99925047Y-63301619D01*
X98972666Y-64206380D02*
X99544095Y-64206380D01*
X99258380Y-64206380D02*
X99258380Y-63206380D01*
X99353619Y-63349238D01*
X99448857Y-63444476D01*
X99544095Y-63492095D01*
X98353619Y-63206380D02*
X98258380Y-63206380D01*
X98163142Y-63254000D01*
X98115523Y-63301619D01*
X98067904Y-63396857D01*
X98020285Y-63587333D01*
X98020285Y-63825428D01*
X98067904Y-64015904D01*
X98115523Y-64111142D01*
X98163142Y-64158761D01*
X98258380Y-64206380D01*
X98353619Y-64206380D01*
X98448857Y-64158761D01*
X98496476Y-64111142D01*
X98544095Y-64015904D01*
X98591714Y-63825428D01*
X98591714Y-63587333D01*
X98544095Y-63396857D01*
X98496476Y-63301619D01*
X98448857Y-63254000D01*
X98353619Y-63206380D01*
X97686952Y-63206380D02*
X97067904Y-63206380D01*
X97401238Y-63587333D01*
X97258380Y-63587333D01*
X97163142Y-63634952D01*
X97115523Y-63682571D01*
X97067904Y-63777809D01*
X97067904Y-64015904D01*
X97115523Y-64111142D01*
X97163142Y-64158761D01*
X97258380Y-64206380D01*
X97544095Y-64206380D01*
X97639333Y-64158761D01*
X97686952Y-64111142D01*
D11*
%TO.C,R302*%
X65105718Y-43328835D02*
X65426835Y-43007718D01*
X66145165Y-44368282D02*
X66466282Y-44047165D01*
%TO.C,R303*%
X68685165Y-46654282D02*
X69006282Y-46333165D01*
X67645718Y-45614835D02*
X67966835Y-45293718D01*
%TO.C,C302*%
X73398748Y-46255000D02*
X73921252Y-46255000D01*
X73398748Y-47725000D02*
X73921252Y-47725000D01*
%TO.C,C105*%
X103639252Y-72417000D02*
X103116748Y-72417000D01*
X103639252Y-73887000D02*
X103116748Y-73887000D01*
%TO.C,C104*%
X98544748Y-70077000D02*
X99067252Y-70077000D01*
X98544748Y-68607000D02*
X99067252Y-68607000D01*
%TO.C,C101*%
X103639252Y-66267000D02*
X103116748Y-66267000D01*
X103639252Y-64797000D02*
X103116748Y-64797000D01*
%TO.C,C102*%
X103639252Y-68607000D02*
X103116748Y-68607000D01*
X103639252Y-70077000D02*
X103116748Y-70077000D01*
%TO.C,C109*%
X106199000Y-57599252D02*
X106199000Y-57076748D01*
X107669000Y-57599252D02*
X107669000Y-57076748D01*
%TO.C,C103*%
X98544748Y-66267000D02*
X99067252Y-66267000D01*
X98544748Y-64797000D02*
X99067252Y-64797000D01*
%TD*%
%LPC*%
D12*
%TO.C,J301*%
X84170001Y-43943800D03*
X78389999Y-43943800D03*
%TD*%
D13*
%TO.C,REF\u002A\u002A*%
X106680000Y-40640000D03*
%TD*%
D14*
%TO.C,SW101*%
X81280000Y-52760000D03*
D15*
X71630000Y-60960000D03*
X90930000Y-60960000D03*
D16*
X81280000Y-69160000D03*
D17*
X79280000Y-49460000D03*
X84030000Y-72460000D03*
X78530000Y-72460000D03*
%TD*%
D18*
%TO.C,J102*%
X99197000Y-47742000D03*
D19*
X100467000Y-47742000D03*
X99197000Y-49012000D03*
X100467000Y-49012000D03*
X99197000Y-50282000D03*
X100467000Y-50282000D03*
X99197000Y-51552000D03*
X100467000Y-51552000D03*
X99197000Y-52822000D03*
X100467000Y-52822000D03*
%TD*%
D20*
%TO.C,U202*%
X71120000Y-111252000D03*
X73660000Y-111252000D03*
X76200000Y-111252000D03*
X78740000Y-111252000D03*
X81280000Y-111252000D03*
X83820000Y-111252000D03*
X86360000Y-111252000D03*
X88900000Y-111252000D03*
X91440000Y-111252000D03*
X91440000Y-96012000D03*
X88900000Y-96012000D03*
X86360000Y-96012000D03*
X83820000Y-96012000D03*
X81280000Y-96012000D03*
X78740000Y-96012000D03*
X76200000Y-96012000D03*
X73660000Y-96012000D03*
X71120000Y-96012000D03*
%TD*%
D13*
%TO.C,REF\u002A\u002A*%
X106680000Y-113030000D03*
%TD*%
%TO.C,REF\u002A\u002A*%
X62230000Y-40640000D03*
%TD*%
D18*
%TO.C,J101*%
X93980000Y-74285000D03*
D19*
X93980000Y-73015000D03*
X95250000Y-74285000D03*
X95250000Y-73015000D03*
X96520000Y-74285000D03*
X96520000Y-73015000D03*
X97790000Y-74285000D03*
X97790000Y-73015000D03*
%TD*%
D13*
%TO.C,REF\u002A\u002A*%
X62230000Y-113030000D03*
%TD*%
D21*
%TO.C,R302*%
X65140765Y-44333235D03*
X66431235Y-43042765D03*
%TD*%
%TO.C,R303*%
X67680765Y-46619235D03*
X68971235Y-45328765D03*
%TD*%
D22*
%TO.C,C302*%
X72710000Y-46990000D03*
X74610000Y-46990000D03*
%TD*%
D23*
%TO.C,C105*%
X104328000Y-73152000D03*
X102428000Y-73152000D03*
%TD*%
D22*
%TO.C,C104*%
X97856000Y-69342000D03*
X99756000Y-69342000D03*
%TD*%
D23*
%TO.C,C101*%
X104328000Y-65532000D03*
X102428000Y-65532000D03*
%TD*%
%TO.C,C102*%
X104328000Y-69342000D03*
X102428000Y-69342000D03*
%TD*%
D24*
%TO.C,C109*%
X106934000Y-58288000D03*
X106934000Y-56388000D03*
%TD*%
D22*
%TO.C,C103*%
X97856000Y-65532000D03*
X99756000Y-65532000D03*
%TD*%
M02*
