M48
; DRILL file {KiCad (6.0.2)} date fr. 01. april 2022 kl. 16.02 +0200
; FORMAT={-:-/ absolute / metric / decimal}
; #@! TF.CreationDate,2022-04-01T16:02:17+02:00
; #@! TF.GenerationSoftware,Kicad,Pcbnew,(6.0.2)
; #@! TF.FileFunction,Plated,1,2,PTH
FMAT,2
METRIC
; #@! TA.AperFunction,Plated,PTH,ViaDrill
T1C0.400
; #@! TA.AperFunction,Plated,PTH,ComponentDrill
T2C0.600
; #@! TA.AperFunction,Plated,PTH,ComponentDrill
T3C0.650
; #@! TA.AperFunction,Plated,PTH,ComponentDrill
T4C1.000
; #@! TA.AperFunction,Plated,PTH,ComponentDrill
T5C1.500
; #@! TA.AperFunction,Plated,PTH,ComponentDrill
T6C1.800
%
G90
G05
T1
X62.176Y-82.214
X62.754Y-92.456
X63.242Y-97.024
X63.246Y-71.374
X63.754Y-87.63
X63.754Y-92.456
X66.548Y-47.752
X67.222Y-59.944
X67.31Y-87.63
X67.31Y-92.456
X68.58Y-72.39
X69.596Y-83.566
X70.358Y-42.418
X70.417Y-92.515
X70.612Y-50.292
X71.12Y-43.18
X71.19Y-87.008
X71.628Y-55.626
X72.144Y-76.073
X73.66Y-93.763
X76.17Y-40.514
X76.2Y-44.45
X76.454Y-46.99
X77.724Y-92.71
X78.724Y-92.71
X79.69Y-46.736
X80.28Y-92.589
X80.518Y-43.18
X81.28Y-92.589
X83.566Y-46.736
X83.566Y-74.93
X83.943Y-76.999
X84.836Y-74.93
X85.09Y-46.736
X87.122Y-78.486
X87.122Y-90.932
X87.56Y-87.77
X88.068Y-45.474
X89.408Y-89.7
X89.408Y-91.148
X89.413Y-74.935
X90.554Y-50.8
X91.254Y-49.784
X91.694Y-83.566
X91.694Y-87.122
X93.472Y-53.848
X95.0Y-52.328
X95.504Y-44.45
X96.012Y-83.566
X96.012Y-87.122
X97.79Y-60.452
X98.806Y-60.452
X100.584Y-58.166
X101.092Y-61.214
X101.219Y-58.938
X101.268Y-60.189
X102.612Y-54.36
X103.318Y-58.166
X104.652Y-54.352
X106.934Y-59.436
T2
X71.12Y-96.012
X71.12Y-111.252
X73.66Y-96.012
X73.66Y-111.252
X76.2Y-96.012
X76.2Y-111.252
X78.74Y-96.012
X78.74Y-111.252
X81.28Y-96.012
X81.28Y-111.252
X83.82Y-96.012
X83.82Y-111.252
X86.36Y-96.012
X86.36Y-111.252
X88.9Y-96.012
X88.9Y-111.252
X91.44Y-96.012
X91.44Y-111.252
T3
X93.98Y-73.015
X93.98Y-74.285
X95.25Y-73.015
X95.25Y-74.285
X96.52Y-73.015
X96.52Y-74.285
X97.79Y-73.015
X97.79Y-74.285
X99.197Y-47.742
X99.197Y-49.012
X99.197Y-50.282
X99.197Y-51.552
X99.197Y-52.822
X100.467Y-47.742
X100.467Y-49.012
X100.467Y-50.282
X100.467Y-51.552
X100.467Y-52.822
T4
X78.53Y-72.46
X79.28Y-49.46
X84.03Y-72.46
T5
X81.28Y-52.76
T5
X81.28Y-68.91G85X81.28Y-69.41
G05
T6
X71.63Y-59.71G85X71.63Y-62.21
G05
X90.93Y-59.71G85X90.93Y-62.21
G05
T0
M30
