%TF.GenerationSoftware,KiCad,Pcbnew,(6.0.2)*%
%TF.CreationDate,2022-04-01T16:02:15+02:00*%
%TF.ProjectId,rotarykeyboard,726f7461-7279-46b6-9579-626f6172642e,rev?*%
%TF.SameCoordinates,Original*%
%TF.FileFunction,Soldermask,Top*%
%TF.FilePolarity,Negative*%
%FSLAX46Y46*%
G04 Gerber Fmt 4.6, Leading zero omitted, Abs format (unit mm)*
G04 Created by KiCad (PCBNEW (6.0.2)) date 2022-04-01 16:02:15*
%MOMM*%
%LPD*%
G01*
G04 APERTURE LIST*
G04 Aperture macros list*
%AMRoundRect*
0 Rectangle with rounded corners*
0 $1 Rounding radius*
0 $2 $3 $4 $5 $6 $7 $8 $9 X,Y pos of 4 corners*
0 Add a 4 corners polygon primitive as box body*
4,1,4,$2,$3,$4,$5,$6,$7,$8,$9,$2,$3,0*
0 Add four circle primitives for the rounded corners*
1,1,$1+$1,$2,$3*
1,1,$1+$1,$4,$5*
1,1,$1+$1,$6,$7*
1,1,$1+$1,$8,$9*
0 Add four rect primitives between the rounded corners*
20,1,$1+$1,$2,$3,$4,$5,0*
20,1,$1+$1,$4,$5,$6,$7,0*
20,1,$1+$1,$6,$7,$8,$9,0*
20,1,$1+$1,$8,$9,$2,$3,0*%
%AMRotRect*
0 Rectangle, with rotation*
0 The origin of the aperture is its center*
0 $1 length*
0 $2 width*
0 $3 Rotation angle, in degrees counterclockwise*
0 Add horizontal line*
21,1,$1,$2,0,0,$3*%
G04 Aperture macros list end*
%ADD10RoundRect,0.250000X-0.450000X0.262500X-0.450000X-0.262500X0.450000X-0.262500X0.450000X0.262500X0*%
%ADD11RoundRect,0.250000X-0.475000X0.250000X-0.475000X-0.250000X0.475000X-0.250000X0.475000X0.250000X0*%
%ADD12RoundRect,0.250000X-0.250000X-0.475000X0.250000X-0.475000X0.250000X0.475000X-0.250000X0.475000X0*%
%ADD13C,0.660400*%
%ADD14R,0.609600X1.143000*%
%ADD15R,0.304800X1.143000*%
%ADD16R,2.159000X2.006600*%
%ADD17C,1.500000*%
%ADD18RoundRect,0.218750X0.424264X0.114905X0.114905X0.424264X-0.424264X-0.114905X-0.114905X-0.424264X0*%
%ADD19RoundRect,0.250000X0.159099X-0.512652X0.512652X-0.159099X-0.159099X0.512652X-0.512652X0.159099X0*%
%ADD20C,2.200000*%
%ADD21C,2.000000*%
%ADD22O,2.300000X4.800000*%
%ADD23O,2.000000X2.500000*%
%ADD24RoundRect,0.250000X-0.262500X-0.450000X0.262500X-0.450000X0.262500X0.450000X-0.262500X0.450000X0*%
%ADD25R,1.000000X1.000000*%
%ADD26O,1.000000X1.000000*%
%ADD27RoundRect,0.250000X0.350000X0.450000X-0.350000X0.450000X-0.350000X-0.450000X0.350000X-0.450000X0*%
%ADD28RotRect,0.914400X0.508000X225.000000*%
%ADD29C,1.100000*%
%ADD30R,1.400000X1.600000*%
%ADD31RoundRect,0.100000X-0.200000X0.100000X-0.200000X-0.100000X0.200000X-0.100000X0.200000X0.100000X0*%
%ADD32RoundRect,0.100000X-0.637500X-0.100000X0.637500X-0.100000X0.637500X0.100000X-0.637500X0.100000X0*%
%ADD33RotRect,1.003300X0.406400X315.000000*%
%ADD34R,0.550000X1.600000*%
%ADD35R,1.600000X0.550000*%
G04 APERTURE END LIST*
D10*
%TO.C,R205*%
X63754000Y-73509500D03*
X63754000Y-75334500D03*
%TD*%
D11*
%TO.C,C108*%
X101854000Y-70932000D03*
X101854000Y-72832000D03*
%TD*%
D10*
%TO.C,R214*%
X81542391Y-89003500D03*
X81542391Y-90828500D03*
%TD*%
D12*
%TO.C,C107*%
X97348000Y-87122000D03*
X99248000Y-87122000D03*
%TD*%
D13*
%TO.C,J301*%
X84170001Y-43943800D03*
X78389999Y-43943800D03*
D14*
X84480001Y-45018800D03*
X83680000Y-45018800D03*
D15*
X82530000Y-45018800D03*
X81530000Y-45018800D03*
X81030000Y-45018800D03*
X80030000Y-45018800D03*
D14*
X78880000Y-45018800D03*
X78080001Y-45018800D03*
D15*
X79530001Y-45018800D03*
X80529999Y-45018800D03*
X82030001Y-45018800D03*
X83029999Y-45018800D03*
D16*
X76170000Y-40513800D03*
X86390000Y-44443800D03*
X76170000Y-44443800D03*
X86390000Y-40513800D03*
%TD*%
D17*
%TO.C,GND*%
X66548000Y-43688000D03*
%TD*%
D18*
%TO.C,L301*%
X69077301Y-53329301D03*
X67574699Y-51826699D03*
%TD*%
D19*
%TO.C,C303*%
X65114249Y-48931751D03*
X66457751Y-47588249D03*
%TD*%
D10*
%TO.C,R209*%
X67310000Y-89003500D03*
X67310000Y-90828500D03*
%TD*%
D20*
%TO.C,REF\u002A\u002A*%
X106680000Y-40640000D03*
%TD*%
D10*
%TO.C,R105*%
X104902000Y-70969500D03*
X104902000Y-72794500D03*
%TD*%
%TO.C,R208*%
X63754000Y-84431500D03*
X63754000Y-86256500D03*
%TD*%
D21*
%TO.C,SW101*%
X81280000Y-52760000D03*
D22*
X71630000Y-60960000D03*
X90930000Y-60960000D03*
D23*
X81280000Y-69160000D03*
D17*
X79280000Y-49460000D03*
X84030000Y-72460000D03*
X78530000Y-72460000D03*
%TD*%
D24*
%TO.C,R101*%
X88749500Y-83566000D03*
X90574500Y-83566000D03*
%TD*%
D10*
%TO.C,R217*%
X70866000Y-89003500D03*
X70866000Y-90828500D03*
%TD*%
%TO.C,R207*%
X63754000Y-89003500D03*
X63754000Y-90828500D03*
%TD*%
D25*
%TO.C,J102*%
X99197000Y-47742000D03*
D26*
X100467000Y-47742000D03*
X99197000Y-49012000D03*
X100467000Y-49012000D03*
X99197000Y-50282000D03*
X100467000Y-50282000D03*
X99197000Y-51552000D03*
X100467000Y-51552000D03*
X99197000Y-52822000D03*
X100467000Y-52822000D03*
%TD*%
D27*
%TO.C,R202*%
X94980000Y-78486000D03*
X92980000Y-78486000D03*
%TD*%
D10*
%TO.C,R212*%
X81542391Y-84431500D03*
X81542391Y-86256500D03*
%TD*%
%TO.C,R213*%
X77986391Y-84431500D03*
X77986391Y-86256500D03*
%TD*%
D27*
%TO.C,R201*%
X90662000Y-78486000D03*
X88662000Y-78486000D03*
%TD*%
D24*
%TO.C,R301*%
X90781500Y-45212000D03*
X92606500Y-45212000D03*
%TD*%
%TO.C,R103*%
X93067500Y-83566000D03*
X94892500Y-83566000D03*
%TD*%
D28*
%TO.C,U302*%
X72264367Y-49968711D03*
X71599828Y-49304172D03*
X70935289Y-48639633D03*
X68950653Y-50606309D03*
X70297691Y-51953347D03*
%TD*%
D29*
%TO.C,U202*%
X71120000Y-111252000D03*
X73660000Y-111252000D03*
X76200000Y-111252000D03*
X78740000Y-111252000D03*
X81280000Y-111252000D03*
X83820000Y-111252000D03*
X86360000Y-111252000D03*
X88900000Y-111252000D03*
X91440000Y-111252000D03*
X91440000Y-96012000D03*
X88900000Y-96012000D03*
X86360000Y-96012000D03*
X83820000Y-96012000D03*
X81280000Y-96012000D03*
X78740000Y-96012000D03*
X76200000Y-96012000D03*
X73660000Y-96012000D03*
X71120000Y-96012000D03*
%TD*%
D30*
%TO.C,SW102*%
X66270000Y-69132000D03*
X66270000Y-61932000D03*
X63270000Y-69132000D03*
X63270000Y-61932000D03*
%TD*%
D31*
%TO.C,U201*%
X88224000Y-89474000D03*
X88224000Y-90424000D03*
X88224000Y-91374000D03*
X90424000Y-91374000D03*
X90424000Y-90424000D03*
X90424000Y-89474000D03*
%TD*%
D12*
%TO.C,C301*%
X90744000Y-41656000D03*
X92644000Y-41656000D03*
%TD*%
D10*
%TO.C,R215*%
X77986391Y-89003500D03*
X77986391Y-90828500D03*
%TD*%
%TO.C,R210*%
X81542391Y-79859500D03*
X81542391Y-81684500D03*
%TD*%
D32*
%TO.C,U203*%
X68011891Y-75023000D03*
X68011891Y-75673000D03*
X68011891Y-76323000D03*
X68011891Y-76973000D03*
X68011891Y-77623000D03*
X68011891Y-78273000D03*
X68011891Y-78923000D03*
X68011891Y-79573000D03*
X68011891Y-80223000D03*
X68011891Y-80873000D03*
X68011891Y-81523000D03*
X68011891Y-82173000D03*
X68011891Y-82823000D03*
X68011891Y-83473000D03*
X73736891Y-83473000D03*
X73736891Y-82823000D03*
X73736891Y-82173000D03*
X73736891Y-81523000D03*
X73736891Y-80873000D03*
X73736891Y-80223000D03*
X73736891Y-79573000D03*
X73736891Y-78923000D03*
X73736891Y-78273000D03*
X73736891Y-77623000D03*
X73736891Y-76973000D03*
X73736891Y-76323000D03*
X73736891Y-75673000D03*
X73736891Y-75023000D03*
%TD*%
D10*
%TO.C,R216*%
X74430391Y-89003500D03*
X74430391Y-90828500D03*
%TD*%
D24*
%TO.C,R104*%
X93067500Y-87122000D03*
X94892500Y-87122000D03*
%TD*%
D10*
%TO.C,R106*%
X96520000Y-52935500D03*
X96520000Y-54760500D03*
%TD*%
D12*
%TO.C,C106*%
X97348000Y-83566000D03*
X99248000Y-83566000D03*
%TD*%
D20*
%TO.C,REF\u002A\u002A*%
X106680000Y-113030000D03*
%TD*%
D10*
%TO.C,R204*%
X63754000Y-93829500D03*
X63754000Y-95654500D03*
%TD*%
D30*
%TO.C,SW103*%
X104878000Y-82086000D03*
X104878000Y-74886000D03*
X101878000Y-82086000D03*
X101878000Y-74886000D03*
%TD*%
D20*
%TO.C,REF\u002A\u002A*%
X62230000Y-40640000D03*
%TD*%
D24*
%TO.C,R102*%
X88749500Y-87122000D03*
X90574500Y-87122000D03*
%TD*%
D10*
%TO.C,R211*%
X77986391Y-79859500D03*
X77986391Y-81684500D03*
%TD*%
D25*
%TO.C,J101*%
X93980000Y-74285000D03*
D26*
X93980000Y-73015000D03*
X95250000Y-74285000D03*
X95250000Y-73015000D03*
X96520000Y-74285000D03*
X96520000Y-73015000D03*
X97790000Y-74285000D03*
X97790000Y-73015000D03*
%TD*%
D10*
%TO.C,R203*%
X63754000Y-98401500D03*
X63754000Y-100226500D03*
%TD*%
D17*
%TO.C,+3V3*%
X62230000Y-58166000D03*
%TD*%
D20*
%TO.C,REF\u002A\u002A*%
X62230000Y-113030000D03*
%TD*%
D33*
%TO.C,U301*%
X91155326Y-48663880D03*
X89811880Y-50007326D03*
X91724674Y-51920120D03*
X92396397Y-51248397D03*
X93068120Y-50576674D03*
%TD*%
D10*
%TO.C,R206*%
X63754000Y-77827500D03*
X63754000Y-79652500D03*
%TD*%
D34*
%TO.C,U101*%
X103384000Y-56710000D03*
X102584000Y-56710000D03*
X101784000Y-56710000D03*
X100984000Y-56710000D03*
X100184000Y-56710000D03*
X99384000Y-56710000D03*
X98584000Y-56710000D03*
X97784000Y-56710000D03*
D35*
X96334000Y-58160000D03*
X96334000Y-58960000D03*
X96334000Y-59760000D03*
X96334000Y-60560000D03*
X96334000Y-61360000D03*
X96334000Y-62160000D03*
X96334000Y-62960000D03*
X96334000Y-63760000D03*
D34*
X97784000Y-65210000D03*
X98584000Y-65210000D03*
X99384000Y-65210000D03*
X100184000Y-65210000D03*
X100984000Y-65210000D03*
X101784000Y-65210000D03*
X102584000Y-65210000D03*
X103384000Y-65210000D03*
D35*
X104834000Y-63760000D03*
X104834000Y-62960000D03*
X104834000Y-62160000D03*
X104834000Y-61360000D03*
X104834000Y-60560000D03*
X104834000Y-59760000D03*
X104834000Y-58960000D03*
X104834000Y-58160000D03*
%TD*%
M02*
