%TF.GenerationSoftware,KiCad,Pcbnew,(6.0.2)*%
%TF.CreationDate,2022-04-01T16:02:14+02:00*%
%TF.ProjectId,rotarykeyboard,726f7461-7279-46b6-9579-626f6172642e,rev?*%
%TF.SameCoordinates,Original*%
%TF.FileFunction,Copper,L2,Bot*%
%TF.FilePolarity,Positive*%
%FSLAX46Y46*%
G04 Gerber Fmt 4.6, Leading zero omitted, Abs format (unit mm)*
G04 Created by KiCad (PCBNEW (6.0.2)) date 2022-04-01 16:02:14*
%MOMM*%
%LPD*%
G01*
G04 APERTURE LIST*
G04 Aperture macros list*
%AMRoundRect*
0 Rectangle with rounded corners*
0 $1 Rounding radius*
0 $2 $3 $4 $5 $6 $7 $8 $9 X,Y pos of 4 corners*
0 Add a 4 corners polygon primitive as box body*
4,1,4,$2,$3,$4,$5,$6,$7,$8,$9,$2,$3,0*
0 Add four circle primitives for the rounded corners*
1,1,$1+$1,$2,$3*
1,1,$1+$1,$4,$5*
1,1,$1+$1,$6,$7*
1,1,$1+$1,$8,$9*
0 Add four rect primitives between the rounded corners*
20,1,$1+$1,$2,$3,$4,$5,0*
20,1,$1+$1,$4,$5,$6,$7,0*
20,1,$1+$1,$6,$7,$8,$9,0*
20,1,$1+$1,$8,$9,$2,$3,0*%
G04 Aperture macros list end*
%TA.AperFunction,ComponentPad*%
%ADD10C,2.000000*%
%TD*%
%TA.AperFunction,ComponentPad*%
%ADD11O,2.300000X4.800000*%
%TD*%
%TA.AperFunction,ComponentPad*%
%ADD12O,2.000000X2.500000*%
%TD*%
%TA.AperFunction,ComponentPad*%
%ADD13C,1.500000*%
%TD*%
%TA.AperFunction,ComponentPad*%
%ADD14R,1.000000X1.000000*%
%TD*%
%TA.AperFunction,ComponentPad*%
%ADD15O,1.000000X1.000000*%
%TD*%
%TA.AperFunction,ComponentPad*%
%ADD16C,1.100000*%
%TD*%
%TA.AperFunction,SMDPad,CuDef*%
%ADD17RoundRect,0.250000X0.132583X-0.503814X0.503814X-0.132583X-0.132583X0.503814X-0.503814X0.132583X0*%
%TD*%
%TA.AperFunction,SMDPad,CuDef*%
%ADD18RoundRect,0.250000X-0.250000X-0.475000X0.250000X-0.475000X0.250000X0.475000X-0.250000X0.475000X0*%
%TD*%
%TA.AperFunction,SMDPad,CuDef*%
%ADD19RoundRect,0.250000X0.250000X0.475000X-0.250000X0.475000X-0.250000X-0.475000X0.250000X-0.475000X0*%
%TD*%
%TA.AperFunction,SMDPad,CuDef*%
%ADD20RoundRect,0.250000X0.475000X-0.250000X0.475000X0.250000X-0.475000X0.250000X-0.475000X-0.250000X0*%
%TD*%
%TA.AperFunction,ViaPad*%
%ADD21C,0.800000*%
%TD*%
%TA.AperFunction,Conductor*%
%ADD22C,0.500000*%
%TD*%
%TA.AperFunction,Conductor*%
%ADD23C,0.250000*%
%TD*%
%TA.AperFunction,Conductor*%
%ADD24C,0.400000*%
%TD*%
%TA.AperFunction,Conductor*%
%ADD25C,0.200000*%
%TD*%
G04 APERTURE END LIST*
D10*
%TO.P,SW101,S*%
%TO.N,N/C*%
X81280000Y-52760000D03*
D11*
X71630000Y-60960000D03*
X90930000Y-60960000D03*
D12*
X81280000Y-69160000D03*
D13*
%TO.P,SW101,C,C*%
%TO.N,GND*%
X79280000Y-49460000D03*
%TO.P,SW101,B,B*%
%TO.N,Net-(R102-Pad2)*%
X84030000Y-72460000D03*
%TO.P,SW101,A,A*%
%TO.N,Net-(R101-Pad2)*%
X78530000Y-72460000D03*
%TD*%
D14*
%TO.P,J102,1,Pin_1*%
%TO.N,+3V3*%
X99197000Y-47742000D03*
D15*
%TO.P,J102,2,Pin_2*%
%TO.N,GND*%
X100467000Y-47742000D03*
%TO.P,J102,3,Pin_3*%
X99197000Y-49012000D03*
%TO.P,J102,4,Pin_4*%
%TO.N,unconnected-(J102-Pad4)*%
X100467000Y-49012000D03*
%TO.P,J102,5,Pin_5*%
%TO.N,unconnected-(J102-Pad5)*%
X99197000Y-50282000D03*
%TO.P,J102,6,Pin_6*%
%TO.N,Net-(C108-Pad1)*%
X100467000Y-50282000D03*
%TO.P,J102,7,Pin_7*%
%TO.N,unconnected-(J102-Pad7)*%
X99197000Y-51552000D03*
%TO.P,J102,8,Pin_8*%
%TO.N,unconnected-(J102-Pad8)*%
X100467000Y-51552000D03*
%TO.P,J102,9,Pin_9*%
%TO.N,Net-(J102-Pad9)*%
X99197000Y-52822000D03*
%TO.P,J102,10,Pin_10*%
%TO.N,Net-(J102-Pad10)*%
X100467000Y-52822000D03*
%TD*%
D16*
%TO.P,U202,1,E*%
%TO.N,Net-(U202-Pad1)*%
X71120000Y-111252000D03*
%TO.P,U202,2,M*%
%TO.N,Net-(U202-Pad2)*%
X73660000Y-111252000D03*
%TO.P,U202,3,NC*%
%TO.N,unconnected-(U202-Pad3)*%
X76200000Y-111252000D03*
%TO.P,U202,4,L*%
%TO.N,Net-(R205-Pad2)*%
X78740000Y-111252000D03*
%TO.P,U202,5,K*%
%TO.N,Net-(U202-Pad5)*%
X81280000Y-111252000D03*
%TO.P,U202,6,J*%
%TO.N,Net-(U202-Pad6)*%
X83820000Y-111252000D03*
%TO.P,U202,7,D*%
%TO.N,Net-(R208-Pad2)*%
X86360000Y-111252000D03*
%TO.P,U202,8,DP*%
%TO.N,Net-(R209-Pad2)*%
X88900000Y-111252000D03*
%TO.P,U202,9,C*%
%TO.N,Net-(R217-Pad2)*%
X91440000Y-111252000D03*
%TO.P,U202,10,B*%
%TO.N,Net-(R216-Pad2)*%
X91440000Y-96012000D03*
%TO.P,U202,11,C2*%
%TO.N,Net-(U201-Pad4)*%
X88900000Y-96012000D03*
%TO.P,U202,12,A*%
%TO.N,Net-(R215-Pad2)*%
X86360000Y-96012000D03*
%TO.P,U202,13,N*%
%TO.N,Net-(R214-Pad2)*%
X83820000Y-96012000D03*
%TO.P,U202,14,H*%
%TO.N,Net-(R213-Pad2)*%
X81280000Y-96012000D03*
%TO.P,U202,15,G*%
%TO.N,Net-(R212-Pad2)*%
X78740000Y-96012000D03*
%TO.P,U202,16,C1*%
%TO.N,Net-(U201-Pad6)*%
X76200000Y-96012000D03*
%TO.P,U202,17,P*%
%TO.N,Net-(R211-Pad2)*%
X73660000Y-96012000D03*
%TO.P,U202,18,F*%
%TO.N,Net-(R210-Pad2)*%
X71120000Y-96012000D03*
%TD*%
D14*
%TO.P,J101,1,Pin_1*%
%TO.N,GND*%
X93980000Y-74285000D03*
D15*
%TO.P,J101,2,Pin_2*%
%TO.N,+3V3*%
X93980000Y-73015000D03*
%TO.P,J101,3,Pin_3*%
%TO.N,Net-(J101-Pad3)*%
X95250000Y-74285000D03*
%TO.P,J101,4,Pin_4*%
%TO.N,Net-(J101-Pad4)*%
X95250000Y-73015000D03*
%TO.P,J101,5,Pin_5*%
%TO.N,Net-(J101-Pad5)*%
X96520000Y-74285000D03*
%TO.P,J101,6,Pin_6*%
%TO.N,Net-(J101-Pad6)*%
X96520000Y-73015000D03*
%TO.P,J101,7,Pin_7*%
%TO.N,Net-(J101-Pad7)*%
X97790000Y-74285000D03*
%TO.P,J101,8,Pin_8*%
%TO.N,Net-(J101-Pad8)*%
X97790000Y-73015000D03*
%TD*%
D17*
%TO.P,R302,1*%
%TO.N,GND*%
X65140765Y-44333235D03*
%TO.P,R302,2*%
%TO.N,Net-(J301-PadA5)*%
X66431235Y-43042765D03*
%TD*%
%TO.P,R303,1*%
%TO.N,GND*%
X67680765Y-46619235D03*
%TO.P,R303,2*%
%TO.N,Net-(J301-PadB5)*%
X68971235Y-45328765D03*
%TD*%
D18*
%TO.P,C302,1*%
%TO.N,+5V*%
X72710000Y-46990000D03*
%TO.P,C302,2*%
%TO.N,GND*%
X74610000Y-46990000D03*
%TD*%
D19*
%TO.P,C105,1*%
%TO.N,+3V3*%
X104328000Y-73152000D03*
%TO.P,C105,2*%
%TO.N,GND*%
X102428000Y-73152000D03*
%TD*%
D18*
%TO.P,C104,1*%
%TO.N,+3V3*%
X97856000Y-69342000D03*
%TO.P,C104,2*%
%TO.N,GND*%
X99756000Y-69342000D03*
%TD*%
D19*
%TO.P,C101,1*%
%TO.N,+3V3*%
X104328000Y-65532000D03*
%TO.P,C101,2*%
%TO.N,GND*%
X102428000Y-65532000D03*
%TD*%
%TO.P,C102,1*%
%TO.N,+3V3*%
X104328000Y-69342000D03*
%TO.P,C102,2*%
%TO.N,GND*%
X102428000Y-69342000D03*
%TD*%
D20*
%TO.P,C109,1*%
%TO.N,Net-(C109-Pad1)*%
X106934000Y-58288000D03*
%TO.P,C109,2*%
%TO.N,GND*%
X106934000Y-56388000D03*
%TD*%
D18*
%TO.P,C103,1*%
%TO.N,+3V3*%
X97856000Y-65532000D03*
%TO.P,C103,2*%
%TO.N,GND*%
X99756000Y-65532000D03*
%TD*%
D21*
%TO.N,GND*%
X71628000Y-55626000D03*
X67222500Y-59944000D03*
X69596000Y-83566000D03*
X66548000Y-47752000D03*
X72144391Y-76073000D03*
X93472000Y-53848000D03*
X95504000Y-44450000D03*
X95000299Y-52328299D03*
X101092000Y-61214000D03*
X68580000Y-72390000D03*
X76454000Y-46990000D03*
X85090000Y-46736000D03*
%TO.N,Net-(C106-Pad1)*%
X96012000Y-83566000D03*
X101218791Y-58938039D03*
%TO.N,Net-(C107-Pad1)*%
X100584000Y-58166000D03*
X96012000Y-87122000D03*
%TO.N,+3V3*%
X101267938Y-60188562D03*
X83566000Y-74930000D03*
%TO.N,Net-(C109-Pad1)*%
X106934000Y-59436000D03*
%TO.N,Net-(C301-Pad1)*%
X76200000Y-44450000D03*
X76170000Y-40513800D03*
%TO.N,+5V*%
X79690139Y-46736000D03*
X83566000Y-46736000D03*
X70612000Y-50292000D03*
%TO.N,Net-(J102-Pad9)*%
X104652299Y-54351701D03*
X102611701Y-54360299D03*
%TO.N,Net-(J301-PadA5)*%
X70358000Y-42418000D03*
%TO.N,/USB & Power/USB_D-*%
X97790000Y-60452000D03*
X90554250Y-50800000D03*
%TO.N,/USB & Power/USB_D+*%
X98806000Y-60452000D03*
X88068379Y-45474407D03*
X80518000Y-43180000D03*
X91253750Y-49784000D03*
%TO.N,Net-(J301-PadB5)*%
X71120000Y-43180000D03*
%TO.N,Net-(R101-Pad2)*%
X91694000Y-83566000D03*
%TO.N,Net-(R102-Pad2)*%
X91694000Y-87122000D03*
%TO.N,/Segment display/SCL*%
X87122000Y-78486000D03*
X83942701Y-76999500D03*
%TO.N,/Segment display/SDA*%
X89413017Y-74935017D03*
X84836000Y-74930000D03*
%TO.N,Net-(R205-Pad2)*%
X62175687Y-82213997D03*
%TO.N,Net-(R208-Pad2)*%
X63754000Y-87630000D03*
%TO.N,Net-(R209-Pad2)*%
X67310000Y-92456000D03*
%TO.N,Net-(R211-Pad2)*%
X73660000Y-93763500D03*
%TO.N,Net-(R212-Pad2)*%
X78723503Y-92710000D03*
%TO.N,Net-(R213-Pad2)*%
X81280000Y-92589480D03*
%TO.N,Net-(R214-Pad2)*%
X80280497Y-92589480D03*
%TO.N,Net-(R215-Pad2)*%
X77724000Y-92710000D03*
%TO.N,Net-(R217-Pad2)*%
X70416842Y-92514842D03*
%TO.N,Net-(SW102-Pad3)*%
X63246000Y-71374000D03*
X103318456Y-58166000D03*
%TO.N,/Segment display/C2*%
X87122000Y-90932000D03*
X87559994Y-87770013D03*
%TO.N,Net-(U201-Pad6)*%
X89408000Y-89699500D03*
X89408000Y-91148500D03*
%TO.N,Net-(U203-Pad12)*%
X71190006Y-87008013D03*
X67310000Y-87630000D03*
%TO.N,Net-(U202-Pad2)*%
X63241701Y-97023701D03*
%TO.N,Net-(U202-Pad5)*%
X62754497Y-92456000D03*
%TO.N,Net-(U202-Pad6)*%
X63754000Y-92456000D03*
%TD*%
D22*
%TO.N,+3V3*%
X93980000Y-66548000D02*
X86447511Y-74080489D01*
X86447511Y-74080489D02*
X84415511Y-74080489D01*
X84415511Y-74080489D02*
X83566000Y-74930000D01*
D23*
%TO.N,/Segment display/SDA*%
X89413017Y-74935017D02*
X89408000Y-74930000D01*
X89408000Y-74930000D02*
X84836000Y-74930000D01*
D22*
%TO.N,+3V3*%
X93980000Y-66479390D02*
X93980000Y-66548000D01*
%TO.N,GND*%
X101092000Y-72644000D02*
X101092000Y-75946000D01*
X101092000Y-75946000D02*
X100330000Y-76708000D01*
X100330000Y-76708000D02*
X94742000Y-76708000D01*
X94742000Y-76708000D02*
X93980000Y-75946000D01*
X93980000Y-75946000D02*
X93980000Y-74285000D01*
D23*
%TO.N,Net-(U202-Pad2)*%
X63241701Y-97023701D02*
X65015398Y-97023701D01*
X65015398Y-97023701D02*
X70256817Y-102265120D01*
X70256817Y-102265120D02*
X70261120Y-102265120D01*
X70261120Y-102265120D02*
X73660000Y-105664000D01*
X73660000Y-105664000D02*
X73660000Y-111252000D01*
D22*
%TO.N,GND*%
X80226000Y-48514000D02*
X87884000Y-48514000D01*
X79280000Y-49460000D02*
X80226000Y-48514000D01*
D23*
%TO.N,Net-(R102-Pad2)*%
X68072000Y-71120000D02*
X82690000Y-71120000D01*
X65786000Y-73406000D02*
X68072000Y-71120000D01*
X65786000Y-84455717D02*
X65786000Y-73406000D01*
X67123802Y-85793520D02*
X65786000Y-84455717D01*
X91694000Y-87122000D02*
X90365520Y-85793520D01*
X82690000Y-71120000D02*
X84030000Y-72460000D01*
%TO.N,Net-(R101-Pad2)*%
X68258198Y-71569520D02*
X77639520Y-71569520D01*
X77639520Y-71569520D02*
X78530000Y-72460000D01*
X91694000Y-83566000D02*
X90574500Y-83566000D01*
X88796500Y-85344000D02*
X67310000Y-85344000D01*
X90574500Y-83566000D02*
X88796500Y-85344000D01*
X66235520Y-84269520D02*
X66235520Y-73592198D01*
X67310000Y-85344000D02*
X66235520Y-84269520D01*
%TO.N,Net-(R102-Pad2)*%
X90365520Y-85793520D02*
X67123802Y-85793520D01*
%TO.N,Net-(R101-Pad2)*%
X66235520Y-73592198D02*
X68258198Y-71569520D01*
D24*
%TO.N,GND*%
X68580000Y-72390000D02*
X72144391Y-75954391D01*
X72144391Y-75954391D02*
X72144391Y-76073000D01*
X72144391Y-76073000D02*
X72144391Y-81017609D01*
X72144391Y-81017609D02*
X69596000Y-83566000D01*
D22*
X101092000Y-68834000D02*
X101600000Y-69342000D01*
X86868000Y-48514000D02*
X87884000Y-48514000D01*
D23*
X106934000Y-54209000D02*
X100467000Y-47742000D01*
X64516000Y-44958000D02*
X64516000Y-45720000D01*
X65140765Y-44333235D02*
X64516000Y-44958000D01*
D22*
X85090000Y-46736000D02*
X86868000Y-48514000D01*
D23*
X64516000Y-45720000D02*
X66548000Y-47752000D01*
D22*
X101600000Y-65532000D02*
X102428000Y-65532000D01*
X101600000Y-73152000D02*
X102428000Y-73152000D01*
X71628000Y-55626000D02*
X71540500Y-55626000D01*
X100584000Y-69342000D02*
X99756000Y-69342000D01*
D23*
X95000299Y-52328299D02*
X94991701Y-52328299D01*
D22*
X101092000Y-72644000D02*
X101600000Y-73152000D01*
X74610000Y-46990000D02*
X76454000Y-46990000D01*
X100584000Y-65532000D02*
X99756000Y-65532000D01*
X101600000Y-69342000D02*
X102428000Y-69342000D01*
X101092000Y-65024000D02*
X100584000Y-65532000D01*
X91440000Y-48514000D02*
X95504000Y-44450000D01*
D23*
X67680765Y-46619235D02*
X66548000Y-47752000D01*
D22*
X87884000Y-48514000D02*
X91440000Y-48514000D01*
X101092000Y-68834000D02*
X100584000Y-69342000D01*
X101092000Y-61214000D02*
X101092000Y-72644000D01*
D23*
X94991701Y-52328299D02*
X93472000Y-53848000D01*
D22*
X71540500Y-55626000D02*
X67222500Y-59944000D01*
X101092000Y-65024000D02*
X101600000Y-65532000D01*
D23*
X106934000Y-56388000D02*
X106934000Y-54209000D01*
%TO.N,Net-(C106-Pad1)*%
X106934000Y-63666500D02*
X102205539Y-58938039D01*
X101472282Y-83566000D02*
X106934000Y-78104282D01*
X96012000Y-83566000D02*
X101472282Y-83566000D01*
X106934000Y-78104282D02*
X106934000Y-63666500D01*
X102205539Y-58938039D02*
X101218791Y-58938039D01*
%TO.N,Net-(C107-Pad1)*%
X102069217Y-58166000D02*
X100584000Y-58166000D01*
X107383520Y-78290480D02*
X107383520Y-63480303D01*
X107383520Y-63480303D02*
X102069217Y-58166000D01*
X96012000Y-87122000D02*
X98552000Y-87122000D01*
X98552000Y-87122000D02*
X107383520Y-78290480D01*
D22*
%TO.N,+3V3*%
X105410000Y-65532000D02*
X104328000Y-65532000D01*
X96358695Y-64100695D02*
X93980000Y-66479390D01*
X106172000Y-64262000D02*
X106172000Y-64770000D01*
X101267938Y-60188562D02*
X100270829Y-60188562D01*
X105410000Y-73152000D02*
X104328000Y-73152000D01*
X106172000Y-68580000D02*
X105410000Y-69342000D01*
X93980000Y-66479390D02*
X93980000Y-73015000D01*
X96012000Y-68580000D02*
X96012000Y-64770000D01*
X100270829Y-60188562D02*
X96358695Y-64100695D01*
X96774000Y-65532000D02*
X97856000Y-65532000D01*
X96358695Y-64100695D02*
X96012000Y-64447391D01*
X106172000Y-67818000D02*
X106172000Y-68580000D01*
X106172000Y-72390000D02*
X105410000Y-73152000D01*
X106172000Y-64770000D02*
X105410000Y-65532000D01*
X106172000Y-64008000D02*
X106172000Y-64262000D01*
X96012000Y-64770000D02*
X96774000Y-65532000D01*
X96774000Y-69342000D02*
X97856000Y-69342000D01*
X105410000Y-69342000D02*
X104328000Y-69342000D01*
X106172000Y-64262000D02*
X106172000Y-67818000D01*
X101267938Y-60188562D02*
X102352562Y-60188562D01*
X96012000Y-64447391D02*
X96012000Y-64770000D01*
X106172000Y-67818000D02*
X106172000Y-72390000D01*
X96012000Y-68580000D02*
X96774000Y-69342000D01*
X102352562Y-60188562D02*
X106172000Y-64008000D01*
D23*
%TO.N,Net-(C109-Pad1)*%
X106934000Y-59436000D02*
X106934000Y-58288000D01*
%TO.N,Net-(C301-Pad1)*%
X76170000Y-40513800D02*
X76170000Y-44420000D01*
X76170000Y-44420000D02*
X76200000Y-44450000D01*
%TO.N,Net-(J102-Pad9)*%
X104643701Y-54360299D02*
X104652299Y-54351701D01*
X102611701Y-54360299D02*
X104643701Y-54360299D01*
%TO.N,Net-(J301-PadA5)*%
X67056000Y-42418000D02*
X66431235Y-43042765D01*
X70358000Y-42418000D02*
X67056000Y-42418000D01*
D25*
%TO.N,/USB & Power/USB_D-*%
X90554250Y-53216250D02*
X90554250Y-50800000D01*
X97790000Y-60452000D02*
X90554250Y-53216250D01*
%TO.N,/USB & Power/USB_D+*%
X88059972Y-45466000D02*
X82804000Y-45466000D01*
X98806000Y-60452000D02*
X91253750Y-52899750D01*
X88068379Y-45474407D02*
X88059972Y-45466000D01*
X91253750Y-52899750D02*
X91253750Y-49784000D01*
X82804000Y-45466000D02*
X80518000Y-43180000D01*
D23*
%TO.N,Net-(J301-PadB5)*%
X71120000Y-43180000D02*
X68971235Y-45328765D01*
%TO.N,/Segment display/SCL*%
X85429201Y-78486000D02*
X87122000Y-78486000D01*
X83942701Y-76999500D02*
X85429201Y-78486000D01*
%TO.N,Net-(R205-Pad2)*%
X62029986Y-82359698D02*
X62029986Y-93402571D01*
X76415600Y-101815600D02*
X78740000Y-104140000D01*
X70443015Y-101815600D02*
X76415600Y-101815600D01*
X62029986Y-93402571D02*
X70443015Y-101815600D01*
X62175687Y-82213997D02*
X62029986Y-82359698D01*
X78740000Y-104140000D02*
X78740000Y-111252000D01*
%TO.N,Net-(R208-Pad2)*%
X66548000Y-96013434D02*
X71001606Y-100467040D01*
X66548000Y-90424000D02*
X66548000Y-96013434D01*
X71001606Y-100467040D02*
X82687040Y-100467040D01*
X82687040Y-100467040D02*
X86360000Y-104140000D01*
X63754000Y-87630000D02*
X66548000Y-90424000D01*
X86360000Y-104140000D02*
X86360000Y-111252000D01*
%TO.N,Net-(R209-Pad2)*%
X67310000Y-96139717D02*
X71187803Y-100017520D01*
X88900000Y-104140000D02*
X88900000Y-111252000D01*
X67310000Y-92456000D02*
X67310000Y-96139717D01*
X71187803Y-100017520D02*
X84777520Y-100017520D01*
X84777520Y-100017520D02*
X88900000Y-104140000D01*
%TO.N,Net-(R211-Pad2)*%
X73660000Y-93763500D02*
X73660000Y-96012000D01*
%TO.N,Net-(R212-Pad2)*%
X78723503Y-92710000D02*
X78740000Y-92726497D01*
X78740000Y-92726497D02*
X78740000Y-96012000D01*
%TO.N,Net-(R213-Pad2)*%
X81280000Y-92589480D02*
X81280000Y-96012000D01*
%TO.N,Net-(R214-Pad2)*%
X80280497Y-92589480D02*
X80280497Y-96536497D01*
X80280497Y-96536497D02*
X80772000Y-97028000D01*
X80772000Y-97028000D02*
X82804000Y-97028000D01*
X82804000Y-97028000D02*
X83820000Y-96012000D01*
%TO.N,Net-(R215-Pad2)*%
X77724000Y-96520000D02*
X78994000Y-97790000D01*
X78994000Y-97790000D02*
X84582000Y-97790000D01*
X77724000Y-92710000D02*
X77724000Y-96520000D01*
X84582000Y-97790000D02*
X86360000Y-96012000D01*
%TO.N,Net-(R217-Pad2)*%
X69596000Y-93335684D02*
X69596000Y-97790000D01*
X91440000Y-104140000D02*
X91440000Y-111252000D01*
X71374000Y-99568000D02*
X86868000Y-99568000D01*
X86868000Y-99568000D02*
X91440000Y-104140000D01*
X69596000Y-97790000D02*
X71374000Y-99568000D01*
X70416842Y-92514842D02*
X69596000Y-93335684D01*
%TO.N,Net-(SW102-Pad3)*%
X103318456Y-58779521D02*
X107833040Y-63294106D01*
X91393897Y-87846511D02*
X89790426Y-86243040D01*
X66937604Y-86243039D02*
X63246000Y-82551435D01*
X107833040Y-63294106D02*
X107833040Y-78476678D01*
X89790426Y-86243040D02*
X66937604Y-86243039D01*
X107833040Y-78476678D02*
X98463207Y-87846511D01*
X98463207Y-87846511D02*
X91393897Y-87846511D01*
X103318456Y-58166000D02*
X103318456Y-58779521D01*
X63246000Y-82551435D02*
X63246000Y-71374000D01*
%TO.N,/Segment display/C2*%
X87122000Y-88208007D02*
X87122000Y-90932000D01*
X87559994Y-87770013D02*
X87122000Y-88208007D01*
%TO.N,Net-(U201-Pad6)*%
X89408000Y-89699500D02*
X89408000Y-91148500D01*
%TO.N,Net-(U203-Pad12)*%
X67931987Y-87008013D02*
X67310000Y-87630000D01*
X71190006Y-87008013D02*
X67931987Y-87008013D01*
%TO.N,Net-(U202-Pad5)*%
X70629212Y-101366080D02*
X78506080Y-101366080D01*
X81280000Y-104140000D02*
X81280000Y-111252000D01*
X78506080Y-101366080D02*
X81280000Y-104140000D01*
X62754497Y-93491365D02*
X70629212Y-101366080D01*
X62754497Y-92456000D02*
X62754497Y-93491365D01*
%TO.N,Net-(U202-Pad6)*%
X80596560Y-100916560D02*
X83820000Y-104140000D01*
X83820000Y-104140000D02*
X83820000Y-111252000D01*
X63754000Y-92456000D02*
X63754000Y-93855151D01*
X70815409Y-100916560D02*
X80596560Y-100916560D01*
X63754000Y-93855151D02*
X70815409Y-100916560D01*
%TD*%
%TA.AperFunction,Conductor*%
%TO.N,+5V*%
G36*
X73348121Y-45994002D02*
G01*
X73394614Y-46047658D01*
X73406000Y-46100000D01*
X73406000Y-48260000D01*
X76962000Y-48260000D01*
X78957095Y-46264905D01*
X79019407Y-46230879D01*
X79046190Y-46228000D01*
X83948000Y-46228000D01*
X84016121Y-46248002D01*
X84062614Y-46301658D01*
X84074000Y-46354000D01*
X84074000Y-47626000D01*
X84053998Y-47694121D01*
X84000342Y-47740614D01*
X83948000Y-47752000D01*
X80264896Y-47752000D01*
X80260500Y-47751923D01*
X80259885Y-47751902D01*
X80252651Y-47750801D01*
X80245359Y-47751394D01*
X80245356Y-47751394D01*
X80243012Y-47751585D01*
X80232797Y-47752000D01*
X78994000Y-47752000D01*
X77506905Y-49239095D01*
X77444593Y-49273121D01*
X77417810Y-49276000D01*
X73406000Y-49276000D01*
X70320095Y-52361905D01*
X70257783Y-52395931D01*
X70186968Y-52390866D01*
X70141905Y-52361905D01*
X67018095Y-49238095D01*
X66984069Y-49175783D01*
X66989134Y-49104968D01*
X67018095Y-49059905D01*
X70067095Y-46010905D01*
X70129407Y-45976879D01*
X70156190Y-45974000D01*
X73280000Y-45974000D01*
X73348121Y-45994002D01*
G37*
%TD.AperFunction*%
%TD*%
M02*
